<svg style="object-fit:cover" id="my-svg" version="1" baseProfile="full" width="100%" height="100%" viewBox="0 0 1440 679" xmlns="http://www.w3.org/2000/svg"><rect width="1440" height="679" fill="#f0f0f0"/><defs><linearGradient id="linear-gradient" x1="0" x2="1" y1="0" y2="1"><stop offset="0%" stop-color="#f5f5f590"/><stop offset="100%" stop-color="#cfd7fc90"/></linearGradient></defs><path transform="scale(1, 1)" style="transform-origin:center" d="M 0,679 V 0,379 C 149.17857142857144,450.3928571428571 298.3571428571429,521.7857142857142 423,486 C 547.6428571428571,450.2142857142857 647.75,307.25000000000006 751,311 C 854.25,314.74999999999994 960.6428571428571,465.21428571428567 1076,501 C 1191.357142857143,536.7857142857143 1315.6785714285716,457.89285714285717 1440,379 C 1440,379 1440,679 1440,679 Z" stroke="none" stroke-width="0" fill="url(#linear-gradient)" class="transition-all duration-300 ease-in-out delay-150"/><defs><linearGradient id="linear-gradient" x1="0" x2="1" y1="0" y2="1"><stop offset="0%" stop-color="#f5f5f5ff"/><stop offset="100%" stop-color="#cfd7fcff"/></linearGradient></defs><path transform="scale(1, 1)" style="transform-origin:center" d="M 0,679 V 0,568 C 132,534.0357142857142 264,500.07142857142856 386,499 C 508,497.92857142857144 619.9999999999999,529.75 720,518 C 820.0000000000001,506.25000000000006 908,450.92857142857144 1026,452 C 1144,453.07142857142856 1292,510.5357142857143 1440,568 C 1440,568 1440,679 1440,679 Z" stroke="none" stroke-width="0" fill="url(#linear-gradient)" class="transition-all duration-300 ease-in-out delay-150"/></svg>