<svg t="1629785063799" class="icon" viewBox="0 0 1024 1024" version="1.1" xmlns="http://www.w3.org/2000/svg" p-id="1132" width="200" height="200"><path d="M0 0m182.570457 0l658.859086 0q182.570457 0 182.570457 182.570457l0 658.859086q0 182.570457-182.570457 182.570457l-658.859086 0q-182.570457 0-182.570457-182.570457l0-658.859086q0-182.570457 182.570457-182.570457Z" fill="#EDAA14" p-id="1133"></path><path d="M358.714814 225.238025m67.398314 0l171.795381 0q67.398314 0 67.398314 67.398314l0 0q0 67.398314-67.398314 67.398314l-171.795381 0q-67.398314 0-67.398314-67.398314l0 0q0-67.398314 67.398314-67.398314Z" fill="#FFFFFF" opacity=".56" p-id="1134"></path><path d="M247.047816 289.996662m50.608237 0l428.687894 0q50.608236 0 50.608237 50.608236l0 407.548841q0 50.608236-50.608237 50.608236l-428.687894 0q-50.608236 0-50.608237-50.608236l0-407.548841q0-50.608236 50.608237-50.608236Z" fill="#FFFFFF" opacity=".56" p-id="1135"></path><path d="M324.139371 424.793289m31.719399 0l312.304097 0q31.719399 0 31.719399 31.719399l0 0q0 31.719399-31.719399 31.719399l-312.304097 0q-31.719399 0-31.719399-31.719399l0 0q0-31.719399 31.719399-31.719399Z" fill="#FFFFFF" opacity=".56" p-id="1136"></path><path d="M368.624422 537.780126m31.719399 0l223.333995 0q31.719399 0 31.719399 31.719399l0 0q0 31.719399-31.719399 31.719399l-223.333995 0q-31.719399 0-31.719399-31.719399l0 0q0-31.719399 31.719399-31.719399Z" fill="#FFFFFF" opacity=".56" p-id="1137"></path><path d="M324.139371 650.766962m31.719399 0l312.304097 0q31.719399 0 31.719399 31.719399l0 0q0 31.719399-31.719399 31.719399l-312.304097 0q-31.719399 0-31.719399-31.719399l0 0q0-31.719399 31.719399-31.719399Z" fill="#FFFFFF" opacity=".56" p-id="1138"></path></svg>