<svg t="1629722164754" class="icon" viewBox="0 0 1024 1024" version="1.1" xmlns="http://www.w3.org/2000/svg" p-id="47836" width="200" height="200"><path d="M899.334 551.872c-8.012 17.182-21.66 30.802-38.009 38.996l-618.134 311.97c-43.852 21.443-96.77 3.956-119.026-38.996-9.796-20.743-11.783-44.154-5.001-65.994l67.602-220.07c6.19-20.151 24.803-33.905 45.884-33.905h236.59c17.39-0.07 31.61-14.12 32.007-31.997-0.11-17.6-14.155-31.826-32.007-31.997H232.824c-21.164 0-39.83-13.861-45.95-34.121l-66.71-220.855c-13.957-46.062 12.39-95.191 59.013-108.99 21.58-6.784 44.925-4.725 65.014 6l617.134 311.97c43.11 22.019 60.46 75.001 38.009 117.989z"  p-id="47837"></path></svg>